<svg id="Layer_1" data-name="Layer 1" xmlns="http://www.w3.org/2000/svg" viewBox="0 0 24 24"><defs><style>.cls-1{fill:#ffffff;}.cls-2{fill:#ffffff;}</style></defs><title>holdtight</title><path class="cls-1" d="M17.52,10.38a1.6,1.6,0,0,0-.81.22,1.56,1.56,0,0,0-1.44-.93,1.61,1.61,0,0,0-.81.22A1.56,1.56,0,0,0,13,9a1.6,1.6,0,0,0-.69.16V6.91a1.56,1.56,0,0,0-3.12,0v8.34l-2-1.09a2.42,2.42,0,0,0-1-.23A1.47,1.47,0,0,0,4.7,15.37a1.41,1.41,0,0,0,.44,1L10,21a6,6,0,0,0,4.14,1.62,4.82,4.82,0,0,0,4.94-4.69v-6A1.53,1.53,0,0,0,17.52,10.38Zm-5.63,3.78a.43.43,0,0,0,.43-.43V10.46a.7.7,0,0,1,1.39,0v3.27a.43.43,0,1,0,.86,0V11.17a.7.7,0,0,1,1.39,0v2.56a.43.43,0,1,0,.86,0V11.88a.7.7,0,0,1,1.39,0v6a4,4,0,0,1-4.07,3.83,5.14,5.14,0,0,1-3.55-1.39L5.74,15.76a.54.54,0,0,1-.18-.4.6.6,0,0,1,.63-.57,1.54,1.54,0,0,1,.63.13l2.61,1.43a.43.43,0,0,0,.64-.38V6.91a.7.7,0,0,1,1.39,0v6.82A.43.43,0,0,0,11.89,14.16Z"/><path class="cls-2" d="M11,1.43a.42.42,0,0,0-.41.41V4a.41.41,0,0,0,.83,0V1.84A.41.41,0,0,0,11,1.43Z"/>
<path class="cls-2" d="M8.33,6.19H6.22a.41.41,0,0,0,0,.83H8.33a.41.41,0,0,0,0-.83Z"/><path class="cls-2" d="M15.74,6.19H13.62a.41.41,0,1,0,0,.83h2.11a.41.41,0,0,0,0-.83Z"/><path class="cls-2" d="M7.91,2.94a.41.41,0,1,0-.59.59L8.82,5a.41.41,0,1,0,.59-.59Z"/><path class="cls-2" d="M14.63,2.94a.42.42,0,0,0-.59,0l-1.5,1.5a.41.41,0,0,0,0,.59.41.41,0,0,0,.59,0l1.5-1.5A.42.42,0,0,0,14.63,2.94Z"/></svg>
